<svg width="179" height="28" viewBox="0 0 179 28" fill="none" xmlns="http://www.w3.org/2000/svg">
<path d="M16.28 21V13.344C16.28 12.488 16.076 11.824 15.668 11.352C15.268 10.872 14.712 10.632 14 10.632C13.544 10.632 13.148 10.74 12.812 10.956C12.476 11.164 12.212 11.46 12.02 11.844C11.836 12.22 11.744 12.656 11.744 13.152L10.376 12.24C10.376 11.352 10.584 10.568 11 9.888C11.424 9.208 11.988 8.68 12.692 8.304C13.404 7.92 14.192 7.728 15.056 7.728C16.536 7.728 17.652 8.168 18.404 9.048C19.164 9.92 19.544 11.064 19.544 12.48V21H16.28ZM0.656 21V8.04H3.536V12.336H3.944V21H0.656ZM8.48 21V13.344C8.48 12.488 8.276 11.824 7.868 11.352C7.468 10.872 6.912 10.632 6.2 10.632C5.52 10.632 4.972 10.868 4.556 11.34C4.148 11.804 3.944 12.408 3.944 13.152L2.576 12.192C2.576 11.344 2.788 10.584 3.212 9.912C3.636 9.24 4.204 8.708 4.916 8.316C5.636 7.924 6.44 7.728 7.328 7.728C8.344 7.728 9.176 7.944 9.824 8.376C10.48 8.808 10.964 9.384 11.276 10.104C11.588 10.824 11.744 11.616 11.744 12.48V21H8.48ZM22.9044 6.24V3.36H26.1684V6.24H22.9044ZM22.9044 21V8.04H26.1684V21H22.9044ZM38.5979 21V14.88C38.5979 14.584 38.5819 14.208 38.5499 13.752C38.5179 13.288 38.4179 12.824 38.2499 12.36C38.0819 11.896 37.8059 11.508 37.4219 11.196C37.0459 10.884 36.5099 10.728 35.8139 10.728C35.5339 10.728 35.2339 10.772 34.9139 10.86C34.5939 10.948 34.2939 11.12 34.0139 11.376C33.7339 11.624 33.5019 11.992 33.3179 12.48C33.1419 12.968 33.0539 13.616 33.0539 14.424L31.1819 13.536C31.1819 12.512 31.3899 11.552 31.8059 10.656C32.2219 9.76 32.8459 9.036 33.6779 8.484C34.5179 7.932 35.5739 7.656 36.8459 7.656C37.8619 7.656 38.6899 7.828 39.3299 8.172C39.9699 8.516 40.4659 8.952 40.8179 9.48C41.1779 10.008 41.4339 10.56 41.5859 11.136C41.7379 11.704 41.8299 12.224 41.8619 12.696C41.8939 13.168 41.9099 13.512 41.9099 13.728V21H38.5979ZM29.7419 21V8.04H32.6459V12.336H33.0539V21H29.7419ZM45.2638 6.24V3.36H48.5278V6.24H45.2638ZM45.2638 21V8.04H48.5278V21H45.2638ZM50.1653 27.72V24.164H50.8373C51.7053 24.164 52.298 23.968 52.6153 23.576C52.942 23.184 53.1053 22.624 53.1053 21.896V5.88H56.9133V23.744C56.9133 24.948 56.5353 25.9093 55.7793 26.628C55.0326 27.356 54.02 27.72 52.7413 27.72H50.1653ZM53.1053 3.78V0.42H56.9133V3.78H53.1053ZM67.6312 21.42C66.1099 21.42 64.7752 21.0793 63.6272 20.398C62.4792 19.7167 61.5832 18.7787 60.9392 17.584C60.3045 16.38 59.9872 14.9987 59.9872 13.44C59.9872 11.8627 60.3139 10.4767 60.9672 9.282C61.6205 8.078 62.5212 7.14 63.6692 6.468C64.8172 5.796 66.1379 5.46 67.6312 5.46C69.1525 5.46 70.4872 5.80067 71.6352 6.482C72.7925 7.16333 73.6932 8.106 74.3372 9.31C74.9812 10.5047 75.3032 11.8813 75.3032 13.44C75.3032 15.008 74.9765 16.394 74.3232 17.598C73.6792 18.7927 72.7785 19.7307 71.6212 20.412C70.4732 21.084 69.1432 21.42 67.6312 21.42ZM67.6312 17.864C68.8539 17.864 69.7639 17.4533 70.3612 16.632C70.9679 15.8013 71.2712 14.7373 71.2712 13.44C71.2712 12.096 70.9632 11.0227 70.3472 10.22C69.7405 9.41733 68.8352 9.016 67.6312 9.016C66.8005 9.016 66.1192 9.20267 65.5872 9.576C65.0552 9.94933 64.6585 10.4673 64.3972 11.13C64.1452 11.7927 64.0192 12.5627 64.0192 13.44C64.0192 14.7933 64.3225 15.8713 64.9292 16.674C65.5452 17.4673 66.4459 17.864 67.6312 17.864ZM85.8019 21.42C84.2992 21.42 83.0439 21.07 82.0359 20.37C81.0279 19.67 80.2672 18.718 79.7539 17.514C79.2499 16.31 78.9979 14.952 78.9979 13.44C78.9979 11.928 79.2499 10.57 79.7539 9.366C80.2579 8.162 80.9999 7.21 81.9799 6.51C82.9599 5.81 84.1685 5.46 85.6059 5.46C87.0525 5.46 88.3125 5.80533 89.3859 6.496C90.4592 7.18667 91.2899 8.134 91.8779 9.338C92.4752 10.5327 92.7739 11.9 92.7739 13.44C92.7739 14.952 92.4799 16.31 91.8919 17.514C91.3132 18.718 90.5012 19.67 89.4559 20.37C88.4105 21.07 87.1925 21.42 85.8019 21.42ZM78.3539 21V0.839999H82.1899V10.64H81.7139V21H78.3539ZM85.1859 18.032C86.0072 18.032 86.6792 17.8267 87.2019 17.416C87.7245 17.0053 88.1119 16.4547 88.3639 15.764C88.6159 15.064 88.7419 14.2893 88.7419 13.44C88.7419 12.6 88.6112 11.8347 88.3499 11.144C88.0885 10.444 87.6825 9.88867 87.1319 9.478C86.5905 9.058 85.8952 8.848 85.0459 8.848C84.2525 8.848 83.6085 9.03933 83.1139 9.422C82.6285 9.80467 82.2739 10.3413 82.0499 11.032C81.8259 11.7227 81.7139 12.5253 81.7139 13.44C81.7139 14.3547 81.8259 15.1573 82.0499 15.848C82.2739 16.5387 82.6379 17.0753 83.1419 17.458C83.6552 17.8407 84.3365 18.032 85.1859 18.032Z" fill="#252323"/>
<path d="M95.8545 21V0.839999H99.2705L105.935 14.224L112.599 0.839999H116.015V21H112.459V8.96L106.607 21H105.263L99.4105 8.96V21H95.8545ZM124.144 21.42C123.062 21.42 122.142 21.2147 121.386 20.804C120.64 20.384 120.07 19.8287 119.678 19.138C119.296 18.438 119.104 17.668 119.104 16.828C119.104 16.128 119.212 15.4887 119.426 14.91C119.641 14.3313 119.986 13.8227 120.462 13.384C120.948 12.936 121.596 12.5627 122.408 12.264C122.968 12.0587 123.636 11.8767 124.41 11.718C125.185 11.5593 126.062 11.41 127.042 11.27C128.022 11.1207 129.1 10.9573 130.276 10.78L128.904 11.536C128.904 10.64 128.69 9.982 128.26 9.562C127.831 9.142 127.112 8.932 126.104 8.932C125.544 8.932 124.961 9.06733 124.354 9.338C123.748 9.60867 123.323 10.0893 123.08 10.78L119.636 9.688C120.019 8.43733 120.738 7.42 121.792 6.636C122.847 5.852 124.284 5.46 126.104 5.46C127.439 5.46 128.624 5.66533 129.66 6.076C130.696 6.48667 131.48 7.196 132.012 8.204C132.311 8.764 132.488 9.324 132.544 9.884C132.6 10.444 132.628 11.0693 132.628 11.76V21H129.296V17.892L129.772 18.536C129.035 19.5533 128.237 20.2907 127.378 20.748C126.529 21.196 125.451 21.42 124.144 21.42ZM124.956 18.424C125.656 18.424 126.244 18.3027 126.72 18.06C127.206 17.808 127.588 17.5233 127.868 17.206C128.158 16.8887 128.354 16.6227 128.456 16.408C128.652 15.9973 128.764 15.5213 128.792 14.98C128.83 14.4293 128.848 13.972 128.848 13.608L129.968 13.888C128.839 14.0747 127.924 14.2333 127.224 14.364C126.524 14.4853 125.96 14.5973 125.53 14.7C125.101 14.8027 124.723 14.9147 124.396 15.036C124.023 15.1853 123.72 15.3487 123.486 15.526C123.262 15.694 123.094 15.8807 122.982 16.086C122.88 16.2913 122.828 16.52 122.828 16.772C122.828 17.1173 122.912 17.416 123.08 17.668C123.258 17.9107 123.505 18.0973 123.822 18.228C124.14 18.3587 124.518 18.424 124.956 18.424ZM145.341 21C144.295 21.196 143.269 21.28 142.261 21.252C141.262 21.2333 140.366 21.0607 139.573 20.734C138.789 20.398 138.191 19.8613 137.781 19.124C137.407 18.4333 137.211 17.7333 137.193 17.024C137.174 16.3053 137.165 15.4933 137.165 14.588V1.68H140.973V14.364C140.973 14.952 140.977 15.484 140.987 15.96C141.005 16.4267 141.103 16.8 141.281 17.08C141.617 17.612 142.153 17.9013 142.891 17.948C143.628 17.9947 144.445 17.9573 145.341 17.836V21ZM134.589 8.82V5.88H145.341V8.82H134.589ZM154.554 21.42C152.986 21.42 151.642 21.07 150.522 20.37C149.402 19.67 148.543 18.718 147.946 17.514C147.348 16.31 147.05 14.952 147.05 13.44C147.05 11.9093 147.358 10.542 147.974 9.338C148.599 8.134 149.476 7.18667 150.606 6.496C151.735 5.80533 153.07 5.46 154.61 5.46C156.392 5.46 157.886 5.91267 159.09 6.818C160.303 7.714 161.078 8.94133 161.414 10.5L157.606 11.508C157.382 10.724 156.99 10.1127 156.43 9.674C155.879 9.23533 155.254 9.016 154.554 9.016C153.751 9.016 153.093 9.212 152.58 9.604C152.066 9.98667 151.688 10.514 151.446 11.186C151.203 11.8487 151.082 12.6 151.082 13.44C151.082 14.756 151.371 15.8247 151.95 16.646C152.538 17.458 153.406 17.864 154.554 17.864C155.412 17.864 156.066 17.668 156.514 17.276C156.962 16.884 157.298 16.324 157.522 15.596L161.414 16.408C160.984 18.0133 160.172 19.25 158.978 20.118C157.783 20.986 156.308 21.42 154.554 21.42ZM174.518 21V13.86C174.518 13.5147 174.499 13.076 174.462 12.544C174.425 12.0027 174.308 11.4613 174.112 10.92C173.916 10.3787 173.594 9.926 173.146 9.562C172.707 9.198 172.082 9.016 171.27 9.016C170.943 9.016 170.593 9.06733 170.22 9.17C169.847 9.27267 169.497 9.47333 169.17 9.772C168.843 10.0613 168.573 10.4907 168.358 11.06C168.153 11.6293 168.05 12.3853 168.05 13.328L165.866 12.292C165.866 11.0973 166.109 9.97733 166.594 8.932C167.079 7.88667 167.807 7.042 168.778 6.398C169.758 5.754 170.99 5.432 172.474 5.432C173.659 5.432 174.625 5.63267 175.372 6.034C176.119 6.43533 176.697 6.944 177.108 7.56C177.528 8.176 177.827 8.82 178.004 9.492C178.181 10.1547 178.289 10.7613 178.326 11.312C178.363 11.8627 178.382 12.264 178.382 12.516V21H174.518ZM164.186 21V0.839999H167.574V11.2H168.05V21H164.186Z" fill="url(#paint0_linear_478_208)"/>
<defs>
<linearGradient id="paint0_linear_478_208" x1="136.011" y1="-27" x2="137.478" y2="34.5016" gradientUnits="userSpaceOnUse">
<stop stop-color="#6CCFF6"/>
<stop offset="1" stop-color="#252323"/>
</linearGradient>
</defs>
</svg>
